<?xml version="1.0" encoding="UTF-8"?>
<svg id="Layer_1" data-name="Layer 1" xmlns="http://www.w3.org/2000/svg" version="1.1" viewBox="0 0 1206.84 841.89">
  <defs>
    <style>
      .cls-1 {
        fill: #c48b52;
      }

      .cls-1, .cls-2, .cls-3, .cls-4 {
        stroke-width: 0px;
      }

      .cls-5 {
        stroke-width: .63px;
      }

      .cls-5, .cls-6, .cls-7, .cls-8 {
        fill: none;
        stroke-miterlimit: 10;
      }

      .cls-5, .cls-8 {
        stroke: #6667a8;
      }

      .cls-2 {
        fill: #e9262f;
      }

      .cls-6 {
        stroke: #c48b52;
      }

      .cls-7 {
        stroke: #e9262f;
      }

      .cls-8 {
        stroke-width: .63px;
      }

      .cls-3 {
        fill: #3a3c91;
      }

      .cls-4 {
        fill: #6667a8;
      }
    </style>
  </defs>
  <g>
    <path class="cls-3" d="M579.6,276.57c-.3,1.11-.55,2.05-.81,2.99-.46,1.73-1.33,3.2-2.76,4.33-1.23.98-2.51,1.03-3.99.62-1.62-.44-3.32-.59-4.95-.97-.46-.11-.89-.53-1.23-.9-.33-.36.07-1.16.64-1.64,2.32-1.95,4.62-3.92,6.39-6.43.56-.79.52-.96-.32-1.46-.55-.33-1.09-.7-1.61-1.07-.21-.15-.47-.35-.54-.58-.34-1.07-1.43-1.33-2.1-2.04-.54-.58-1.11-1.15-1.68-1.71-.33-.32-.35-.6-.04-.97.36-.43.27-.76-.18-1.2-1.12-1.07-2.14-2.24-3.19-3.38-.12-.13-.2-.35-.21-.54-.03-.96-.72-1.54-1.22-2.24-.61-.87-1.26-1.72-1.78-2.65-.49-.88-.85-1.83-1.24-2.76-.24-.58-.33-1.14.4-1.53.13-.07.15-.6.03-.83-.37-.73-.85-1.4-1.24-2.11-.63-1.15-1.02-2.37-1-3.69.01-.76.39-1.02,1.13-.74.72.27,1.42.59,2.12.9.7.31.85.21.84-.54-.01-1.02-.05-2.04.02-3.05.03-.46.2-1.07.52-1.31.45-.32.96.05,1.39.4.71.59,1.47,1.12,2.24,1.62.15.1.53.05.66-.08.18-.17.24-.48.31-.73.22-.74.94-.99,1.49-.46,1.78,1.69,3.53,3.42,5.31,5.11,2.1,1.98,3.88,4.23,5.38,6.67.64,1.04,1.14,2.19,1.58,3.34.42,1.1.69,2.27,1.02,3.41.14.5.43.69.88.37.41-.3.85-.6,1.15-1,1-1.3,1.86-2.7,2.92-3.95,1.43-1.69,3.23-2.97,5.09-4.14,1.52-.97,3.09-1.88,4.69-2.7,1.73-.89,3.52-1.69,5.31-2.46.89-.38,1.36-.01,1.39.96.03.91.03.94.92.7.93-.25,1.85-.54,2.78-.81.76-.22,1.32.27,1.11,1.04-.29,1.1-.62,2.18-.96,3.26-.2.64.01.96.63.9.77-.07,1.54-.13,2.31-.15.78-.02,1.01.29.72,1.04-.27.68-.59,1.39-1.06,1.94-.86.99-1.81,1.9-2.79,2.78-.38.34-.48.59-.09.89.61.47.4.95,0,1.34-1.25,1.24-2.52,2.46-3.82,3.64-.5.45-.52.67.09,1.02.75.43.78.93.08,1.42-2.05,1.41-4.27,2.47-6.69,3.08-.32.08-.56.52-.8.82-.22.27-.32.7-.6.85-1.16.68-2.4,1.18-3.78,1.18-.63,0-.95.39-1.29.86-.38.52.11.74.26,1.04.4.78,1.04,1.19,1.92,1.46,3.04.95,5.25,3.94,5.34,7.11.08,2.82-.97,5.02-3.09,6.73-1.73,1.4-3.78,1.78-5.98,1.5-2.04-.26-3.67-1.24-4.95-2.79-1.02-1.23-1.63-2.65-1.77-4.26-.14-1.64.23-3.16.91-4.64.14-.3.06-.9-.17-1.13-.58-.6-1.29-1.07-2.06-1.68ZM585.6,288.2c2.58,1.93,6.54.84,8.1-1.4,1.19-1.71,1.64-4.72.47-5.6-.6.43-1.2.87-1.8,1.31-.58.42-1.1.28-1.3-.43-.13-.45-.15-.93-.24-1.49-.52.4-1.03.71-1.44,1.13-.45.47-1.16.21-1.41-.29-.38-.73.04-1.81.85-2.2.71-.34,1.77.03,2.08.73.09.19.16.39.21.5.76-.29,1.49-.57,2.24-.85-.33-1.78-5.22-3.87-7.85-1.26.51.08,1.05.06,1.5.26.3.13.58.53.65.86.05.21-.28.54-.5.75-.3.29-.64.55-.99.75-.27.16-.68.39-.88.29-.32-.17-.59-.54-.73-.89-.12-.29-.02-.67-.02-1.05-2.1,1.1-2.48,6.06-.21,7.71.07-.18.14-.35.21-.52.41-.97,1.09-1.48,2.04-1.38.34.04.84.26.93.52.17.46.17.99-.47,1.33-.52.28-.93.77-1.46,1.23ZM582.03,275.78c.04-.07.09-.14.13-.2-.67-.79-1.31-1.6-2.01-2.37-.88-.97-1.01-1.7-.24-2.47,1.29-1.3,2.56-2.65,3.98-3.8,2.66-2.17,5.67-3.08,9.1-2.02.19.06.42,0,.63,0,.07-.09.14-.19.21-.28-.58-.59-1.16-1.19-1.8-1.84-.35.42-.49.6-.67.81-.27-.14-.52-.27-.89-.46.36-.26.6-.43.84-.6-.9-.8-2.05-.92-3.13-.9-1.44.02-2.89.19-4.3.48-1.59.34-2.96,1.16-3.73,2.68-1.03,2.03-2.04,4.08-3.01,6.13-.79,1.68-1.48,3.41-2.81,4.79-.33.34-.45.88-.67,1.36.38.12.59.16.79.25.2.09.38.21.57.32.62-.48.76-.88.9-2.49.1-1.2,1.14-1.98,2.24-1.5,1.09.47,2.06,1.2,3.09,1.8.24.14.52.21.79.32ZM577.52,261.93c.04-.09.08-.18.13-.26-.28-.23-.54-.5-.86-.67-1.16-.62-2.33-1.2-3.5-1.79-3.05-1.56-6.26-2.74-9.52-3.75-.54-.17-1.1-.29-1.66-.35-.51-.06-.75.18-.42.68.63.95,1.2,1.95,1.94,2.81,1.23,1.43,2.68,2.52,4.74,2.43.72-.03,1.45.08,2.17.15,1.81.19,3.61.39,5.42.59.53.06,1.06.12,1.59.18ZM559.64,248.04c-.04.07-.08.13-.13.2.09.22.16.45.28.65.47.77.9,1.56,1.43,2.27.99,1.33,2.12,2.42,3.9,2.77,1.51.29,2.98.89,4.42,1.48,1.92.79,3.78,1.71,5.67,2.57.42.19.86.33,1.29.5.04-.07.07-.14.11-.21-.9-.69-1.8-1.38-2.7-2.07-4.03-3.06-8.37-5.6-12.92-7.78-.42-.2-.9-.26-1.36-.38ZM589.59,258.61c.03.09.05.18.08.28.12,0,.24,0,.36,0,2.25-.15,4.49-.35,6.74-.45,1.46-.07,2.92,0,4.39,0,.29,0,.61-.02.87-.14,1.54-.71,3-1.56,4.18-2.82.2-.22.3-.53.45-.79-.3-.07-.62-.23-.9-.18-2.1.36-4.2.68-6.27,1.17-2.31.54-4.59,1.2-6.86,1.86-1.03.3-2.02.72-3.03,1.08ZM602.77,260.87c-1.29-.74-9.31-.64-9.8-.05.99,1.93,2.52,2.92,4.72,2.92,2.25,0,3.56-1.45,5.08-2.87ZM574.4,253.95l.13-.21c-.17-.21-.32-.44-.51-.63-.98-.94-1.92-1.92-2.96-2.79-2.42-2.03-4.88-4-7.34-5.98-.19-.15-.51-.15-.98-.28.44,1.75.36,3.29,2.24,4.25,2.95,1.52,5.69,3.44,8.52,5.18.28.17.59.3.89.44ZM591.12,255.73c.35-.04.72-.04,1.06-.13,1.31-.34,2.61-.74,3.93-1.05,1.68-.41,3.37-.82,5.07-1.11,1.68-.29,2.95-.98,3.41-2.73.05-.2.1-.49,0-.61-.1-.12-.4-.1-.6-.09-.19.01-.39.08-.57.15-4.2,1.59-8.39,3.18-12.29,5.58ZM578.08,264.33c-3.18-.98-10.49-1.64-11.59-1.18.84.64,1.64,1.23,2.41,1.85.68.54,1.45.65,2.26.54,2.06-.28,4.13-.59,6.19-.91.25-.04.48-.2.72-.3ZM569.7,267.75c.65,1.3,2.16,1.86,3.21,1.28.97-.54,1.94-1.09,2.91-1.64.16-.09.29-.25.43-.38l-.1-.22c-2.18,0-4.3.47-6.44.97ZM591.33,270.19c.03-.08.06-.15.09-.23-1.44-.8-2.86-1.64-4.34-2.36-.31-.15-1,.05-1.24.33-.32.38.07.75.48.99.23.14.38.41.6.57.44.32.87.7,1.36.89,1.02.4,2.05.14,3.05-.19ZM586.34,271.81c-.3-.73-1.17-1.6-2.09-2.02-.19-.09-.54-.11-.65,0-.16.16-.28.49-.24.72.22,1.13,1.94,1.86,2.98,1.29ZM598.78,266.07c0-.08-.02-.15-.03-.23-.64-.1-1.28-.2-1.92-.3-.64-.1-1.08.12-1.21.78-.06.3-.05.62-.08.92.31.02.66.15.94.05.63-.22,1.22-.54,1.82-.84.18-.09.33-.25.49-.38ZM593.62,267.92c-.28-1.27-2.61-2.02-3.74-1.24,1.24,1.09,1.99,1.48,3.74,1.24ZM575.28,270.15c-.05-.07-.1-.14-.14-.2-.53.31-1.07.6-1.57.95-.07.05,0,.52.13.61.54.39,1.08.19,1.32-.47.11-.29.18-.6.27-.9ZM569.81,280.82c.93.07,2.33-1.4,2.18-2.03-.72.67-1.45,1.35-2.18,2.03Z"/>
    <path class="cls-3" d="M584.55,283.61c-.1-.71.26-1.16.78-1.5.59-.38,1.22-.52,1.79-.03.23.2.43.56.42.84,0,.22-.32.46-.54.65-.24.21-.57.32-.76.56-.28.36-.47.68-1.05.53-.63-.17-.67-.58-.65-1.06Z"/>
    <path class="cls-3" d="M587.71,284.24c.17-1.28,1.38-2.11,2.45-1.63.26.12.61.52.58.72-.07.39-.37.76-.62,1.09-.12.16-.36.24-.55.34-.36.2-.84.65-1.06.54-.35-.17-.54-.7-.79-1.07Z"/>
  </g>
  <g>
    <path class="cls-1" d="M609.41,329.36c-.72-.9-1.63-1.66-2.48-2.46-4.93-4.67-3.37-4.31-9.9-2.48q-3.25.91-4.41-2.28c-.92-2.52-3.36-3.37-5.64-1.9-.86.55-1.59,1.3-2.37,1.95h0c-2.06,1.06-3.06,2.76-2.47,5.01.41,1.57-.21,1.88-1.46,2.18-5.34,1.27-10.68,2.55-16,3.92-1.18.3-1.61-.13-2.04-1.09-.52-1.15-1.53-1.79-2.8-1.72-1.19.07-2.3.44-2.61,1.84-1.05,1.57-.25,3.05.49,4.32.78,1.34,2.16.66,3.35.36,6.96-1.75,13.94-3.43,20.87-5.27,1.54-.41,2.57-.24,3.41,1.07,0,0,0,0,0,0,.13.65.1,1.21-.39,1.79-1.58,1.88-1.45,3.88-.33,5.97,1.23,2.29,2.34,4.63,3.5,6.95,1.45,2.87,2.58,5.83,2.08,9.11-.41,2.73-.79,5.48-1.48,8.16-.2.75-.32,1.56.54,1.8.93.26,1.16-.64,1.31-1.31.42-1.88.67-3.79,1-5.68-.04-.12-.02-.24.05-.34.56-1.15.88-2.31.96-3.5.07,3.24.18,6.48-.37,9.7-.09.52-.22,1.26.62,1.4.89.15.99-.66,1.25-1.21.11-.22.02-.51.06-.77.59-3.91.49-7.86.61-11.79.12-4.11-.05-8.27,1.49-12.21.65-1.33,1.67-2.3,2.97-2.97,1.68-.87,2.08-.64,2.03,1.2-.27,8.86.93,17.62,1.79,26.41.07.66.15,1.43,1,1.34.75-.08.7-.84.65-1.42-.24-2.39-.48-4.78-.77-7.16-.81-6.65-1.09-13.32-1.03-20.02.01-1.06.37-1.65,1.45-1.95,1.11-.31,2.3-.44,3.27-1.14,2.66-.92,3.52-3.64,1.78-5.82ZM595.12,330.99c-.03-.3-.18-.58-.26-.86-.65-2.15.09-2.95,2.34-2.5.28.06.54.17.83.14,0,.34.11.67.23,1,.06.16.12.31.18.47.09.91-.71.74-1.17.91-.72.27-1.53.33-2.15.84ZM589.75,322.07c1.25,1.1,1.17,2.56,1.7,3.75.31.68.16,1.79,1.32,1.81-.01.04-.02.09-.04.13,0,0,0,0,.01.01-.01,0-.02-.01-.03-.02-.64.77-.1,1.62-.15,2.43-.02.33-.08.67-.46.75s-.57-.23-.74-.51c-.2-.34-.32-.74-.25-1.12.35-1.83-.39-3.42-1.01-5.05-.24-.62-.63-1.24-.35-2.19ZM585.78,332.31c0,.07-.11.06-.22.02.09,0,.16-.01.22-.02ZM559.57,334.86c-.94-.79-.38-1.49.05-2.2.06.35.29.54.68.58,0,0,.01,0,.02.01-.43.4,0,1.33-.75,1.61ZM601.1,335.12c-1.67.48-3.37.95-4.6,2.31-1.54,1.38-2.61,3.05-3,5.09-.46,2.41-.66,4.86-.83,7.3-.1,1.43-.11,2.87-.09,4.31-.07-.66-.2-1.32-.41-1.99-.81-2.2-1.76-4.33-2.83-6.41-1.1-2.13-2.17-4.28-3.21-6.45-.61-1.29-.7-2.56.41-3.57,1.23-1.13,1.23-2.32.52-3.67-.08-.18-.17-.35-.28-.5-.26-.29-.55-.5-.97-.42-.01.01-.03.03-.04.04.03-.87-.61-1.45-.95-2.16-.01-.01-.02-.02-.04-.03.16-.41-.06-.77-.36-1.11-.08-.04-.16-.08-.23-.12-1.15-1.72-.41-2.88.65-3.94.29-.18.58-.34.94-.39.75-.3,1.25-.08,1.51.69.52,1.58,1.45,3.03,1.15,4.84-.2,1.25.36,2.41.9,3.53.63,1.29,1.66,1.77,3.05,1.43,3.9-.96,7.74-2.16,11.62-3.23.75-.21,1.6-.54,1.35-1.62,0,0,.01.01.02.02.48.27,1.33.24,1.22,1.01-.08.58-.81.55-1.29.69-2.8.82-5.62,1.59-8.42,2.43-.97.29-2.07.36-2.76,1.28-.25,1.39.69,1.54,1.65,1.43,1.02-.11,2.03-.34,3.03-.61,2.65-.7,5.25-1.57,7.94-2.14-1.82.84-3.72,1.41-5.64,1.96Z"/>
    <path class="cls-1" d="M576.46,359.3c-1.09-.14-2.15-.39-3.18-.77-.47-.33-.85-.78-1.35-1.09-4.21-2.58-6.96-6.24-8.1-11.08-.2-1.59-.66-3.13-.86-4.72-.08-.64-.27-1.21-.98-1.19-.82.03-.96.69-.97,1.4,0,2.65.4,5.21,1.41,7.67.77,1.42,1.55,2.85,2.32,4.27.97,1.6,2.72,2.53,3.6,4.2.74.64,1.6,1.11,2.46,1.54,1.72.86,3.39,1.92,5.44,1.88.7-.01,1.4-.11,1.47-.91.06-.76-.54-1.12-1.25-1.21Z"/>
    <path class="cls-1" d="M571.71,351.5c.46.21.77.69,1.25.82.77.22,1.07-.09.75-.88-2.81-2.86-5.1-6.03-5.88-10.08-.22-.27-.15-.6-.2-.92-.09-.69-.1-1.59-1.04-1.54-.94.05-.9.92-.89,1.64.04,1.57.29,3.07,1.39,4.3v-.02c.4,1.1.85,2.18,1.55,3.14,1.05,1.15,1.73,2.63,3.06,3.53Z"/>
    <polygon class="cls-1" points="592.73 327.76 592.73 327.76 592.72 327.75 592.73 327.76"/>
    <path class="cls-1" d="M564.47,342.47c-.78.24-.42,1.09-.29,1.7.18.88.38,1.75.56,2.62,1.73,4.33,4.64,7.66,8.56,10.14.8.05,1.85.41,1.47-1.11-.91-.59-1.88-1.12-2.72-1.8-2.73-2.2-5.03-4.73-5.82-8.3-.23-.66-.45-1.33-.69-1.99-.2-.56-.19-1.53-1.06-1.27Z"/>
  </g>
  <g>
    <path class="cls-1" d="M591.21,401.99c0-1.52-.02-3.04,0-4.55.01-1.05.86-1.87,1.89-1.86.79,0,1.39.4,1.71,1.12.24.54.64.78,1.18.93,1.8.51,3.62.98,5.38,1.59,1.55.53,3.06,1.19,4.54,1.89.74.35,1.44.84,2.05,1.4,1.14,1.03,1,2.29-.22,3.24-.9.7-1.88,1.24-2.96,1.57-1.78.54-3.56,1.05-5.35,1.58-.01,0-.02,0-.04,0-.26.07-.61.11-.58.44.02.18.3.38.51.47,1.44.6,2.74,1.4,3.92,2.41.8.67,1.54,1.4,2.07,2.3.54.92.9,1.9.89,2.99-.01.78-.03,1.57,0,2.35.06,1.72-.72,3.09-1.81,4.32-1.29,1.47-2.9,2.49-4.65,3.33-1.81.87-3.68,1.54-5.62,2.02-2.15.53-4.32.96-6.53,1.17-3.94.37-7.87.34-11.8-.14-3.44-.42-6.77-1.23-9.96-2.56-1.88-.78-3.7-1.75-5.16-3.23-.9-.91-1.72-1.88-2.07-3.15-.14-.52-.27-1.05-.28-1.58-.03-1.1-.05-2.21.07-3.3.17-1.53.98-2.78,2.06-3.84,1.18-1.16,2.53-2.09,4.04-2.76,1.16-.52,2.36-.94,3.56-1.36.73-.26.86-.39.91-1.17.09-1.4.55-2.64,1.6-3.59,1.37-1.25,2.98-1.68,4.8-1.27,1.53.34,2.62,1.27,3.38,2.61.14.24.21.52.29.79.16.52.45.75,1,.7,2.14-.21,4.28-.11,6.42.08,1.24.11,2.48.28,3.72.44.81.11,1.04-.08,1.04-.91,0-1.48,0-2.96,0-4.44,0,0,0,0,.01,0ZM591.21,413.77s0,0,0,0c0-1.26,0-2.52,0-3.78,0-.64-.27-.93-.9-1.06-.12-.03-.24-.05-.36-.06-1.26-.15-2.52-.33-3.79-.44-1.94-.17-3.88-.25-5.83-.08-.86.08-1.13.29-1.37,1.12-.06.2-.11.41-.21.59-.82,1.47-2.03,2.44-3.68,2.8-1.33.29-2.57-.06-3.73-.72-.65-.37-1.07-.96-1.52-1.52-.44-.54-.62-.6-1.3-.38-1.38.44-2.71.97-3.98,1.68-1.49.83-2.94,1.71-3.89,3.2-.76,1.19-1.04,2.47-.53,3.81.43,1.13,1.19,2.06,2.17,2.76.86.62,1.77,1.17,2.69,1.7.59.34,1.22.63,1.85.87.76.29,1.54.54,2.33.77,1.15.33,2.3.69,3.47.91,1.51.29,3.04.5,4.57.66,1.42.15,2.85.22,4.28.28,2.44.09,4.87-.08,7.28-.44,1.43-.21,2.87-.39,4.27-.73,1.85-.45,3.67-1.03,5.42-1.81,1.38-.62,2.7-1.31,3.87-2.28.93-.78,1.72-1.68,2.11-2.82.52-1.55.04-2.95-.95-4.18-.92-1.14-2.1-1.97-3.37-2.66-1.28-.7-2.62-1.26-4-1.74-.78-.27-1.11-.07-1.1.78.02,2.15,0,4.31,0,6.47,0,.89.15,1,1.02,1.15.87.14,1.72.41,2.44.95,1.07.82.99,2-.14,2.75-.8.53-1.69.77-2.61.93-1.74.29-3.49.27-5.23.06-1.11-.13-2.18-.42-3.15-1.03-1.03-.64-.98-2.15-.1-2.69.93-.57,1.91-.91,2.98-1.03.76-.09.98-.32.99-1.09.01-1.22,0-2.45,0-3.67ZM595.12,399.86c-.03.19-.09.38-.09.56.03,2.26.06,4.53.1,6.79,0,.55.35.83.89.73,1.56-.29,3.12-.61,4.67-.92.25-.05.49-.15.73-.24.48-.19.54-.4.25-.83-.06-.09-.14-.17-.22-.25-1.82-1.83-3.64-3.65-5.46-5.48-.24-.24-.5-.38-.88-.36ZM572.07,410.47c.03-.27.08-.49.07-.7-.02-.85.93-1.62,1.72-1.43.42.1.78.37.81.69.04.36-.18.57-.59.83-.36.23-.67.56-.93.9-.19.24-.08.44.22.5.66.14,1.31.12,1.95-.12.76-.28,1.37-.78,1.82-1.42.38-.53.61-1.15.58-1.82,0-.26-.13-.46-.41-.37-.36.12-.74.26-1.03.5-.39.33-.65.47-.96.3-.35-.18-.51-.55-.42-1,.14-.77.72-1.2,1.6-1.21.17,0,.35-.07.52-.11-.05-.21-.09-.42-.16-.61-.03-.09-.11-.17-.19-.22-.37-.25-.74-.51-1.14-.72-1.68-.86-3.29-.09-4.28,1.11-.68.82-.87,1.82-.67,2.84.16.85.49,1.64,1.49,2.06ZM598.75,400.04c-.1.05-.26.1-.36.2-.03.03.08.22.14.32.1.15.22.3.34.43.61.62,1.22,1.23,1.84,1.84.89.89,1.78,1.79,2.7,2.64.2.18.56.33.82.29.9-.16,1.69-.63,2.42-1.17.11-.08.23-.22.25-.35.03-.19.06-.48-.05-.59-.36-.35-.75-.71-1.19-.94-1.98-1.02-4.05-1.83-6.18-2.49-.22-.07-.45-.11-.73-.18ZM593.45,409.61h0c0-3.18,0-6.37,0-9.55,0-.7.02-1.4-.02-2.09-.01-.2-.2-.55-.32-.55-.3,0-.37.3-.4.57-.01.13-.02.27-.02.4,0,.39.01.78,0,1.18,0,4.04-.01,8.08-.02,12.12,0,3.06,0,6.12,0,9.18,0,.21.04.44.12.64.05.11.21.22.33.23.08,0,.21-.16.24-.26.06-.17.07-.36.07-.54,0-3.77,0-7.54,0-11.31ZM591.21,420.86c0-.54-.14-.8-.59-.8-.72,0-1.44.09-2.03.57-.26.21-.24.43.08.55.51.2,1.02.4,1.55.52.73.17.99-.09.99-.84ZM595.02,420.84c0,.69.33.97,1,.78.36-.1.71-.26,1.04-.43.32-.16.31-.33.06-.6-.35-.37-.83-.39-1.28-.47-.57-.1-.82.13-.83.71Z"/>
    <path class="cls-1" d="M565.77,389.03c1.58-.12,2.57.81,3.39,1.97.95,1.34,1.59,2.84,2.06,4.4.43,1.45.83,2.92,1.2,4.38.1.4.09.85.03,1.26-.04.27-.26.49-.6.49-.37,0-.62-.18-.72-.52-.19-.68-.37-1.37-.53-2.06-.43-1.83-.96-3.62-1.76-5.32-.34-.73-.74-1.45-1.24-2.07-1.04-1.28-2.06-1.32-3.46-.48-1.07.65-1.65,1.71-2.15,2.81-.17.37-.31.75-.47,1.11-.21.47-.46.59-.9.44-.32-.11-.57-.57-.48-.94.42-1.69,1.17-3.19,2.52-4.33,1.19-1.01,1.98-1.12,3.11-1.16Z"/>
    <path class="cls-1" d="M580.58,394.42c.46,0,.81.46.68.92-.11.4-.23.8-.37,1.19-.5,1.47-1.01,2.93-1.52,4.4-.17.48-.34.96-.52,1.45-.17.47-.58.69-1.04.56-.37-.1-.56-.41-.45-.91.15-.64.34-1.28.56-1.9.42-1.2.88-2.38,1.32-3.57.21-.57.41-1.15.64-1.71.13-.32.36-.43.7-.43Z"/>
    <path class="cls-1" d="M565.6,405.25c-.07.46-.58.77-1.08.64-.38-.1-.75-.23-1.11-.38-.63-.26-1.26-.54-1.88-.81-.14-.06-.29-.13-.42-.22-.39-.27-.5-.59-.34-.98.14-.34.47-.56.88-.4,1.21.48,2.4,1.01,3.58,1.57.18.08.25.38.37.58Z"/>
    <path class="cls-1" d="M579.88,404.49c.06-.08.15-.31.32-.4.6-.3,1.22-.56,1.85-.79.33-.13.78.11.93.41.14.29.04.72-.3.89-.62.31-1.26.6-1.91.81-.51.16-.87-.22-.88-.92Z"/>
    <path class="cls-1" d="M565.98,405.97c.07-.07.19-.26.36-.35.51-.26,1.03-.13,1.43.21.2.17.35.52.34.78-.01.38-.34.55-.72.59-.63.06-1.4-.54-1.4-1.24Z"/>
    <path class="cls-1" d="M571.8,406.63c.12-.99.89-1.83,1.98-1.39.33.13.52.4.52.74,0,.32-.2.55-.5.71-.22.11-.44.26-.61.44-.22.23-.46.44-.78.37-.34-.07-.59-.48-.61-.87Z"/>
  </g>
  <g>
    <path class="cls-4" d="M583.66,177c3.3,0,6.6,0,9.89,0,.38,0,.78.03,1.15.14,1.09.33,1.47,1.52.8,2.45-.27.38-.62.71-.86,1.11-.23.37-.46.79-.52,1.21-.1.68-.09,1.39-.09,2.08,0,.59.25.79.8.58,1.17-.45,2.37-.62,3.61-.56,1.81.09,3.15.95,3.96,2.53,1,1.94.73,3.86-.24,5.75-.97,1.89-2.38,3.36-4.09,4.58-1.51,1.08-3.19,1.68-5.03,1.86-.59.06-.99.3-1.21.87-.68,1.75-1.89,3.07-3.47,4.04-.49.3-1.05.49-1.59.69-.66.24-.87.46-.88,1.16-.01,1.26,0,2.52,0,3.78,0,.6.23.82.82.84.68.02,1.36,0,2.04.03,1.15.05,1.61.44,1.91,1.55q.23.85,1.12.86c.27,0,.55.02.82,0,.78-.07,1.39.27,1.77.88.34.55.73,1.18.78,1.8.1,1.26.06,2.55-.05,3.81-.04.52-.33,1.05-.62,1.5-.44.67-1.1,1.02-1.93,1-.86-.02-1.71,0-2.57,0-4.95,0-9.9-.03-14.84.02-1.96.02-2.53-.84-2.98-2.53-.33-1.27-.33-2.61-.01-3.9.17-.7.54-1.37.93-1.98.31-.48.88-.62,1.46-.6.37.01.74-.01,1.12,0,.51.02.75-.2.85-.71.25-1.22.76-1.64,2-1.7.55-.03,1.1-.02,1.65-.03.08,0,.16,0,.24,0,.59-.02.88-.26.89-.86.03-1.24.03-2.49.02-3.73,0-.61-.31-1-.91-1.22-2.39-.89-4.14-2.46-5.07-4.87-.16-.43-.47-.65-.91-.69-2.11-.15-4-.91-5.67-2.17-1.34-1.02-2.5-2.24-3.37-3.7-.71-1.2-1.24-2.45-1.2-3.87.08-2.83,1.98-5.09,5.05-5.02,1.13.03,2.21.21,3.26.62.44.17.73-.03.73-.49,0-.74-.04-1.49-.08-2.23-.04-.7-.51-1.16-.91-1.67-.25-.31-.53-.63-.67-.99-.44-1.14.24-2.13,1.54-2.2,1.08-.06,2.16-.03,3.25-.03,2.44,0,4.88,0,7.32,0ZM583.61,178.49c-2.36,0-4.72,0-7.08,0-.63,0-.85.32-.49.77.67.86.81,1.82.88,2.86.25,3.5.51,6.99.85,10.48.15,1.52.33,3.06,1.04,4.46.76,1.49,1.89,2.53,3.57,2.84,1.72.32,3.3.08,4.68-1.1,1.19-1.01,1.77-2.38,2-3.83.42-2.68.72-5.38.98-8.08.18-1.85.15-3.71.32-5.56.06-.63.43-1.23.65-1.84.09-.26.16-.54.24-.81-.24-.07-.48-.19-.71-.19-2.31-.01-4.62,0-6.93,0ZM583.52,220.01s0,.01,0,.02c2.29,0,4.59,0,6.88,0,.66,0,1.33,0,1.99-.03.46-.02.88-.18,1.05-.64.41-1.11.59-2.25.36-3.43-.32-1.66-.66-1.92-2.33-1.92-3.8,0-7.6,0-11.39.01-1.75,0-3.49,0-5.24.02-.56,0-.92.27-1.12.82-.53,1.41-.49,2.81-.04,4.23.23.71.51.94,1.27.94,2.86,0,5.72,0,8.58,0ZM575.41,183.27c0-.65.02-1.15,0-1.65-.02-.3-.03-.64-.17-.89-.37-.68-.77-1.34-1.23-1.95-.11-.15-.48-.12-.73-.17,0,.21-.02.42.02.62.02.09.14.17.22.24.67.62.99,1.4,1.06,2.3.21,2.64.45,5.28.65,7.92.21,2.9.49,5.8,1.26,8.62.44,1.58,1.34,2.87,2.74,3.81,1.25.84,2.65,1.18,4.12,1.24,1.49.06,2.94-.22,4.25-.97,2.08-1.19,3.03-3.17,3.52-5.39.25-1.15.38-2.33.49-3.5.35-3.83.66-7.66,1.01-11.49.05-.54.18-1.09.39-1.59.17-.4.56-.7.79-1.09.11-.19.18-.6.09-.67-.25-.19-.55-.1-.75.19-.04.07-.07.15-.11.22-.13.22-.26.44-.39.66-.34.57-.83,1.05-.86,1.8-.04,1.27-.18,2.54-.27,3.82-.18,2.54-.23,5.1-.67,7.62-.27,1.56-.42,3.12-1.1,4.58-.83,1.8-2.12,3.01-4.01,3.59-2.56.78-4.85.31-6.83-1.51-1.5-1.38-1.97-3.26-2.39-5.14-.21-.96-.26-1.95-.36-2.93-.14-1.46-.23-2.93-.37-4.39-.12-1.35-.27-2.7-.39-3.9ZM574.17,193.76c-.15-1.18-.29-2.31-.46-3.45-.03-.21-.14-.47-.3-.59-1.05-.81-2.16-1.54-3.49-1.81-.86-.17-1.61.43-1.7,1.3-.07.64.14,1.19.49,1.72,1.1,1.66,2.58,2.81,4.47,3.44.74.25,1.02.04.99-.62ZM593.08,193.46c-.05.91.19,1.1,1,.86.09-.03.18-.06.27-.1,1.12-.48,2.14-1.13,3-2.01.66-.68,1.27-1.39,1.47-2.35.26-1.3-.61-2.17-1.89-1.88-1.19.27-2.18.96-3.14,1.67-.17.12-.28.41-.31.63-.15,1.09-.27,2.18-.4,3.18ZM597.56,185.41c-.52.13-1.4.32-2.26.59-.42.13-.82.37-1.19.61-.26.17-.43.5-.19.74.12.12.5.07.73-.01.65-.23,1.27-.55,1.93-.77,1.11-.38,2.13-.17,2.93.7.93,1.02,1.07,2.55.46,3.81-.47.97-1.14,1.78-1.93,2.52-1.29,1.22-2.77,2.05-4.51,2.4-.22.04-.47.11-.61.25-.16.17-.28.45-.27.67,0,.11.37.3.54.28.64-.08,1.29-.15,1.89-.38,1.4-.53,2.64-1.35,3.7-2.42,1.14-1.16,2.13-2.42,2.61-4.01.79-2.63-.77-4.91-3.82-4.96ZM569.42,185.29s-.03.08-.04.13c-.24.02-.48.03-.72.07-2.31.34-3.36,2.53-2.99,4.3.46,2.17,1.81,3.82,3.45,5.23.92.8,1.96,1.44,3.11,1.84.53.19,1.1.27,1.65.32.2.02.59-.24.58-.34-.03-.25-.2-.51-.38-.7-.12-.12-.36-.1-.55-.16-.7-.23-1.43-.41-2.1-.73-1.48-.7-2.73-1.72-3.68-3.07-.85-1.2-1.27-2.48-.77-3.95.43-1.26,1.92-2.15,3.17-1.77.78.24,1.54.57,2.29.9.31.14.66.4.91.06.28-.38-.05-.69-.32-.95-.06-.06-.12-.12-.19-.14-1.14-.35-2.28-.69-3.42-1.03ZM583.61,212.59h0c1.18,0,2.36,0,3.53,0,.5,0,1,0,1.5-.06.16-.02.42-.29.41-.42-.02-.18-.22-.41-.4-.5-.19-.09-.44-.07-.67-.07-2.95,0-5.91-.01-8.86,0-.21,0-.45,0-.61.09-.15.09-.32.31-.32.47,0,.15.19.36.34.43.18.08.41.06.62.06,1.48,0,2.97,0,4.45,0ZM584.46,207.42h.02c0-.6.03-1.2,0-1.79-.03-.58-.33-.8-.94-.79-.46.01-.69.24-.7.8-.02,1.21-.03,2.42,0,3.63,0,.57.31.9.74.9.52,0,.85-.29.89-.87.04-.63,0-1.26,0-1.89Z"/>
    <path class="cls-4" d="M566.86,209.7c.07-.43.12-.75.18-1.07.28-1.35.88-2.52,2-3.37.76-.57,1.62-.7,2.47-.32.79.35,1.11,1.09,1.18,1.93.16,1.82-.52,3.32-1.96,4.39-.47.35-1.18.37-1.77.55-.18.05-.5.09-.5.16-.02.2.03.47.16.61.64.72,1.31,1.42,1.98,2.12.4.42.51.88.25,1.15-.27.29-.89.25-1.28-.11-.69-.65-1.37-1.32-2.05-1.98-.06-.05-.13-.09-.23-.16-.09.21-.17.4-.26.59-.46,1.09-1.3,1.67-2.46,1.75-1.33.08-2.54-.32-3.56-1.15-.45-.36-.81-.89-1.06-1.41-.45-.94,0-1.72.66-2.4.43-.44.39-.69-.18-.98-.44-.23-.94-.41-1.3-.73-.82-.74-1.18-1.91-.3-2.87.42-.45.96-.57,1.53-.61.27-.02.55,0,.82-.03.46-.04.54-.15.37-.59-.26-.67-.56-1.33-.81-2.01-.5-1.36-.13-2.64.42-3.89.36-.82.93-1.44,1.77-1.84,1-.47,2.1-.32,3,.36,1.63,1.23,2.15,4.43,1.41,6.03-.4.86-.86,1.6-1.56,2.22-.16.14-.31.49-.25.68.31,1,.47,2.07,1.32,2.98ZM565.05,204.24c.09.03.18.06.28.08.2-.28.48-.54.6-.85.41-1.12.33-2.27-.05-3.37-.25-.73-.77-1.31-1.59-1.4-.78-.08-1.31.35-1.72,1.03-.36.6-.47,1.23-.5,1.9-.04.89.08,1.75.65,2.48.14.18.41.25.62.37.06-.21.17-.41.18-.62.01-.24-.1-.48-.08-.72.04-.42.11-.85.25-1.25.05-.15.37-.3.54-.27.2.03.43.22.53.41.11.2.08.47.11.71.06.5.12,1,.18,1.5ZM571.34,207.24c-.15-.23-.31-.65-.61-.88-.33-.26-.72,0-1,.26-.26.23-.53.49-.69.8-.36.72-.73,1.46-.43,2.3.2.57.69.75,1.18.41.94-.66,1.33-1.63,1.55-2.89ZM564.32,214.42c.11-.02.35-.04.58-.11.52-.16.7-.63.44-1.1-.49-.88-2.21-1.55-3.19-1.25-.34.1-.66.22-.71.63-.06.43.11.79.45,1.05.67.53,1.46.74,2.43.78ZM561.78,208.98c.34-.18.64-.27.8-.47.09-.1,0-.5-.12-.6-.57-.45-1.2-.84-1.98-.65-.17.04-.4.21-.43.36-.04.18.04.5.17.58.49.3,1.03.52,1.56.78ZM563.27,210.18c.58.26,1.1.52,1.65.73.42.16.61,0,.46-.43-.15-.44-.39-.84-.57-1.27-.15-.36-.32-.35-.56-.08-.29.32-.59.63-.98,1.05Z"/>
    <path class="cls-4" d="M598.79,211.86c-.35-.04-.53-.1-.72-.09-1.26.08-2.13-.6-2.79-1.54-.38-.54-.57-1.22-.82-1.84-.32-.82-.2-1.63.11-2.41.56-1.4,2.25-1.53,3.23-.84.96.67,1.63,1.55,1.94,2.69.11.39.2.78.33,1.17.04.11.15.25.24.26.09.01.25-.1.29-.2.29-.73.56-1.47.82-2.22.11-.33,0-.63-.28-.87-1.95-1.69-2.06-3.87-1.46-6.13.32-1.21,1.15-2.12,2.38-2.58.93-.35,2.26.09,3.07.95,1.62,1.73,1.73,4.85.43,6.67-.06.08-.11.16-.16.24-.22.47-.13.61.39.64.34.02.68,0,1.02.04.88.08,1.53.5,1.82,1.36.23.68-.15,1.67-.84,2.18-.33.25-.71.45-1.09.62-.66.3-.71.56-.22,1.07.98,1.02,1.12,1.97.14,3.15-1.11,1.34-2.66,1.95-4.41,1.74-1.01-.12-1.81-.66-2.15-1.71-.16-.5-.46-.57-.86-.2-.57.54-1.11,1.13-1.7,1.66-.2.18-.49.32-.75.36-.46.08-.82-.32-.63-.74.18-.4.48-.75.78-1.07.41-.45.9-.84,1.3-1.3.23-.27.36-.63.59-1.06ZM603.6,204.53c.07.03.14.06.21.09.23-.27.53-.5.69-.8.74-1.34.66-2.69-.01-4.04-.51-1.02-1.66-1.43-2.45-.85-1.18.88-1.68,3.28-.93,4.57.14.24.36.42.54.63.16-.28.38-.55.47-.85.12-.38.09-.81.21-1.19.06-.19.31-.4.51-.46.32-.09.59.12.62.45.05.53.04,1.06.07,1.59.01.28.04.57.06.85ZM598.54,209.03c-.13-1.08-.57-2.06-1.63-2.66-.38-.22-.79-.09-.96.31-.11.27-.17.6-.15.89.07.85.42,1.57,1.02,2.19.35.36.7.73,1.25.49.49-.21.41-.71.47-1.22ZM602.81,214.42c1.05-.09,1.95-.25,2.58-1.08.42-.56.33-1.04-.3-1.31-.92-.4-1.74,0-2.53.38-.34.17-.62.5-.86.81-.33.45-.18.88.35,1.06.27.09.57.11.76.14ZM606.32,207.08c-.58.26-1.13.45-1.62.74-.18.1-.32.45-.29.65.03.15.36.34.56.35.63.03,1.26-.07,1.76-.52.2-.18.47-.39.27-.68-.15-.21-.41-.33-.69-.54ZM603.7,210.16c-.4-.46-.74-.86-1.07-1.24-.7.32-.75,1.06-1.02,1.66-.11.24.05.38.3.34.65-.12,1.26-.34,1.79-.76Z"/>
    <path class="cls-4" d="M584.64,188.74c0,1.6,0,3.2,0,4.8,0,.82-.28,1.1-1.01,1.11-.83,0-1.17-.28-1.18-1.11-.02-1.5,0-3.01,0-4.51,0-.95,0-1.91,0-2.86,0-.6-.2-.8-.8-.89-.08-.01-.18,0-.24-.03-.21-.13-.5-.25-.56-.44-.06-.16.09-.51.25-.62.72-.48,1.45-.98,2.25-1.32.79-.35,1.3.09,1.3.98,0,1.63,0,3.27,0,4.9h-.01Z"/>
  </g>
  <path class="cls-2" d="M571.58,464.74c1.72-.06,3.63.42,5.45,1.24,1.8.81,3.34,1.96,4.65,3.44.49.56.76.56,1.33.08.95-.82,1.84-1.7,2.86-2.42,1.17-.82,2.46-1.41,3.86-1.82,1.7-.5,3.41-.72,5.14-.47,1.26.18,2.53.47,3.74.87,1.59.52,3.1,1.24,4.5,2.17,1.77,1.17,3.3,2.6,4.58,4.3.9,1.19,1.58,2.49,2.1,3.89.17.45.29.92.36,1.39.19,1.17.34,2.35.49,3.53.24,1.84-.28,3.58-.73,5.32-.47,1.8-1.31,3.45-2.33,5.01-1.37,2.09-3.03,3.94-4.76,5.74-3.04,3.17-6.47,5.92-9.74,8.83-1.93,1.72-3.94,3.35-5.92,5.01-.18.15-.41.27-.63.33-2.04.51-4.05.45-5.96-.5-.4-.2-.75-.49-1.09-.78-1.83-1.56-3.66-3.13-5.48-4.72-2.46-2.14-4.89-4.3-7.35-6.44-2.16-1.88-4.19-3.89-5.9-6.2-1.16-1.56-2.12-3.24-2.96-5-1.01-2.12-1.3-4.37-1.45-6.64-.12-1.85.33-3.68.89-5.44.67-2.15,1.63-4.15,3.15-5.85,1.4-1.57,3.05-2.79,5-3.61,1.89-.79,3.83-1.29,6.19-1.24ZM586.94,473.6s.03,0,.04,0c0,1.35-.02,2.7,0,4.05.02,1,.17,1.11,1.15,1.06.05,0,.1,0,.14,0,1.69-.18,3.32-.03,4.88.72,1.23.59,2.31,1.34,3.04,2.5.43.68.98,1.02,1.78,1.01,2.47-.01,4.95,0,7.42-.01.98,0,1.29-.32,1.32-1.31.09-2.95-.53-5.75-1.89-8.37-1.7-3.29-4.39-5.41-7.93-6.32-3.19-.83-6.35-.7-9.25,1.12-.27.17-.48.5-.61.8-.12.28-.11.63-.11.95-.01,1.27,0,2.54,0,3.81ZM577.65,473.44s0,0,0,0c0-1.37-.02-2.73,0-4.1.02-.72-.23-1.19-.88-1.55-1.93-1.08-4-1.32-6.15-1.25-4.47.16-7.82,2.26-10.21,5.96-1.13,1.75-1.7,3.74-2.11,5.76-.27,1.33-.27,2.68-.12,4.03.08.72.34.94,1.07.98.13,0,.26.01.39,0,2.19,0,4.37-.02,6.56,0,.72,0,1.22-.23,1.62-.88,1.36-2.2,3.37-3.45,5.94-3.69.93-.09,1.88.03,2.83.07.85.04,1.02-.07,1.04-.9.03-1.48,0-2.96,0-4.44ZM575.13,486.39c.64,0,1.29.01,1.93,0,.78-.02,1.07-.3,1.11-1.09.04-.88.24-1.7.85-2.35.67-.72.29-1.28-.34-1.58-.86-.41-1.76-.82-2.68-1.01-1.93-.41-3.71.17-5.26,1.31-1.4,1.03-2.19,2.46-2.13,4.26.02.61,0,1.22,0,1.83-.02,1.2.16,2.33.92,3.31.84,1.08,1.88,1.89,3.18,2.31,2.08.66,4.06.34,5.95-.69.69-.38.81-.81.42-1.5-.37-.66-.79-1.27-.88-2.06-.1-.89-.44-1.14-1.35-1.14-1.19,0-2.38.01-3.57-.02-.29,0-.6-.11-.86-.25-.4-.22-.4-.84,0-1.07.23-.13.51-.22.77-.23.64-.03,1.29-.01,1.93-.01ZM589.17,486.39s0,0,0,.01c.63,0,1.25-.02,1.88,0,.27.01.55.06.79.18.46.22.51.82.08,1.08-.29.17-.65.29-.99.3-1.22.04-2.44.02-3.66.03-.64,0-1,.31-1.08.93-.09.74-.31,1.4-.76,2-.12.15-.21.32-.3.5-.16.32-.16.61.12.87.73.68,1.62,1.04,2.55,1.26,1.89.45,3.69.07,5.33-.9,1.37-.82,2.36-2.01,2.52-3.67.11-1.13.12-2.28.06-3.41-.03-.63-.18-1.29-.45-1.86-.93-1.96-2.65-2.9-4.66-3.37-1.55-.36-2.99.11-4.4.67-.3.12-.57.35-.83.57-.41.36-.47.74-.15,1.18.48.66.85,1.36.93,2.19.02.21.04.42.08.62.1.54.41.81.96.82.66.01,1.32,0,1.98,0ZM585.31,501.07h0c0-1.9,0-3.79,0-5.69,0-.61-.16-1.11-.76-1.43-.42-.22-.76-.58-1.14-.89-.57-.46-1.25-.69-1.88-.34-.68.38-1.35.9-1.83,1.51-.29.37-.27,1.03-.27,1.56-.02,3.49,0,6.97,0,10.46,0,1.36,1.16,2.76,2.5,3.05,1.11.24,1.91-.32,2.68-.99.53-.45.72-1.01.71-1.71-.03-1.85,0-3.69,0-5.54ZM586.95,500.54s.01,0,.02,0c0,1.38-.02,2.76.01,4.14,0,.27.11.62.3.78.32.28.59-.07.82-.26.92-.75,1.82-1.52,2.72-2.29,1.38-1.18,2.76-2.36,4.12-3.56,1.01-.89,2.02-1.78,2.98-2.73,1.09-1.07,2.13-2.18,3.16-3.3.17-.19.34-.6.24-.76-.11-.2-.5-.32-.77-.33-1.16-.03-2.31,0-3.47-.02-.62-.01-1.12.19-1.54.64-.94,1-2.09,1.71-3.4,2.1-1.31.39-2.65.46-4.01.33-.94-.09-1.18.14-1.18,1.1,0,1.38,0,2.76,0,4.14ZM577.67,500.32s0,0,0,0c0-1.35,0-2.7,0-4.05,0-.9-.34-1.18-1.23-1.04-2.76.42-5.23-.16-7.34-2.06-.28-.25-.69-.5-1.05-.52-1.28-.08-2.57-.08-3.85-.06-.52,0-.72.52-.37.92.51.58,1.04,1.14,1.6,1.66,1.34,1.24,2.7,2.47,4.07,3.68,2.29,2.03,4.59,4.06,6.91,6.07.25.22.64.27.97.4.1-.32.28-.64.29-.96.03-1.35.01-2.7.01-4.05ZM580.02,470.16c-.57.2-.58.6-.58.99-.01.84,0,1.67,0,2.51,0,1.69,0,3.37,0,5.06,0,.64.15,1.2.73,1.58.28.19.52.43.77.66.58.52,1.56.63,2.19.18.63-.46,1.25-.96,1.82-1.49.2-.18.35-.52.35-.79.03-2.6.03-5.21.01-7.81,0-.25-.15-.5-.24-.75-.25.12-.51.22-.76.36-.1.06-.16.19-.24.29-.22.28-.42.57-.66.83-.73.8-1.36.77-2.04-.07-.43-.53-.9-1.04-1.35-1.55ZM601.8,484.65h0c-1.08,0-2.15,0-3.23,0-.87,0-1.14.28-1.16,1.16-.03,1.3-.07,2.6-.12,3.9-.01.38.15.62.51.71.22.05.45.06.67.06,1.35.01,2.7.02,4.05.03.52,0,.94-.21,1.24-.62.95-1.28,1.55-2.74,2.09-4.22.24-.65-.08-1.02-.77-1.02-1.09,0-2.19,0-3.28,0ZM562.8,485.03s0,0,0,.01c-.92,0-1.83.01-2.75,0-.94-.02-1.29.39-.89,1.24.62,1.3,1.32,2.57,2.02,3.82.29.52.79.77,1.41.77,1.21-.01,2.41,0,3.62,0,.68,0,.88-.23.84-.92-.08-1.26-.15-2.53-.21-3.8-.04-.86-.29-1.12-1.14-1.12-.96,0-1.93,0-2.89,0ZM584.59,487.12s.04,0,.06,0c-.03-.59,0-1.2-.12-1.77-.35-1.7-1.64-2.59-3.26-1.99-1.06.39-1.45,1.33-1.51,2.37-.05.91-.03,1.83,0,2.74.03.73.34,1.39.92,1.84.73.56,1.55.75,2.44.32.93-.45,1.37-1.22,1.46-2.21.04-.43,0-.87,0-1.3Z"/>
  <g>
    <path class="cls-2" d="M595.11,572.52c-.05.82-.08,1.64-.17,2.45-.12,1.09-.24,2.18-.44,3.26-.09.47-.33.93-.61,1.33-.67.97-1.77,1.2-2.6.38-.83-.82-1.64-1.77-2.15-2.81-1.51-3.1-2.87-6.28-4.27-9.43-.28-.63-.61-1.09-1.37-1.06-.75.03-1.05.46-1.31,1.12-1.5,3.79-2.95,7.62-5.29,11.01-.19.28-.41.53-.64.78-.54.57-1.13,1.06-2,.83-.9-.25-1.3-.97-1.59-1.77-.56-1.53-.56-3.12-.56-4.72,0-.43-.16-.85-.25-1.28-.38.19-.77.36-1.14.57-1.28.74-2.55,1.49-3.83,2.22-.25.14-.55.2-.83.26-1.65.37-2.64-.63-2.4-2.3.29-2.02,1.21-3.79,2.14-5.54,1.17-2.19,2.44-4.33,3.67-6.49.27-.47.19-.89-.15-1.29-1.13-1.32-2.12-2.73-2.79-4.34-.85-2.03-1.55-4.1-1.58-6.35-.02-2.02-.06-4.02.5-6.01.61-2.15,1.44-4.19,2.75-6.01,3.37-4.71,7.96-7.37,13.69-7.95,3.13-.32,6.16.23,9.07,1.51,3.54,1.55,6.37,3.93,8.41,7.19,2.15,3.43,3.03,7.18,2.8,11.24-.11,2.05-.63,3.99-1.38,5.86-.7,1.74-1.65,3.39-2.95,4.79-.48.51-.46.98-.12,1.57,1.42,2.47,2.9,4.9,4.17,7.45.75,1.5,1.57,3.04,1.53,4.82-.03,1.47-.82,2.24-2.24,1.86-1.13-.3-2.21-.85-3.24-1.42-.92-.5-1.74-1.17-2.6-1.77l-.24.05ZM566.39,547.91c.19,9.22,7.08,16.61,16.25,17.08,9.93.51,17.81-7.08,18-16.63.19-9.39-6.93-17.19-16.74-17.42-9.57-.22-17.14,7.11-17.51,16.96ZM587.56,566.09c-1.2.16-1.46.58-1.01,1.53.1.2.17.41.26.62,1.16,2.57,2.29,5.15,3.51,7.69.4.83.99,1.59,1.59,2.31.41.48.75.37.99-.23.32-.8.37-1.6-.04-2.4-1.48-2.91-2.93-5.84-4.43-8.75-.17-.32-.58-.52-.87-.77ZM573.82,576.75c.17.56.26,1.03.45,1.45.16.36.47.51.8.15.36-.4.74-.79,1-1.25.76-1.37,1.53-2.74,2.19-4.16.85-1.85,1.61-3.74,2.39-5.62.26-.63.08-.92-.57-1.05-.77-.15-1.11.01-1.5.78-1.36,2.7-2.71,5.39-4.06,8.1-.26.53-.47,1.09-.69,1.59ZM601.9,573.31c-.04-.15-.08-.4-.18-.62-.91-1.96-1.79-3.94-2.76-5.88-.68-1.36-1.48-2.66-2.26-3.97-.26-.44-.6-.88-1.25-.53-.65.35-.83.8-.56,1.51.1.25.21.5.33.74,1.34,2.65,2.68,5.3,4.03,7.95.39.76.9,1.4,1.84,1.49.45.05.81-.04.82-.7ZM572.42,563.16c-.34-.34-.6-.74-.96-.89-.22-.09-.67.13-.89.34-.31.31-.52.72-.74,1.12-1.11,2.05-2.24,4.08-3.29,6.16-.52,1.03-.91,2.14-1.29,3.24-.23.68.07.96.8.85.67-.1,1.17-.46,1.49-1.04.52-.97,1.01-1.95,1.5-2.92.76-1.5,1.51-2.99,2.25-4.5.37-.74.71-1.49,1.12-2.36Z"/>
    <path class="cls-2" d="M570.89,556.35c0-.25,0-.49,0-.74,0-.46-.16-.78-.64-.98-2.54-1.07-3.14-3.99-1.77-6.01.43-.64.48-1.14.03-1.75-.55-.76-.68-1.64-.64-2.56.07-1.67.97-2.76,2.44-3.38.57-.24.64-.63.61-1.12-.09-1.54.42-2.83,1.65-3.78.79-.61,1.69-.94,2.7-.8.8.11,1.28-.17,1.63-.93.94-2.02,3.49-2.8,5.45-1.74.2.11.41.2.57.35.49.43.93.4,1.44,0,.99-.76,2.11-.92,3.32-.69,1.17.22,1.99.92,2.53,1.92.41.77.82,1.22,1.84,1.16,2.42-.14,4.22,1.73,4.13,4.18-.03.83.06,1.32.96,1.76,2.26,1.11,2.89,3.73,1.41,5.96-.46.69-.27,1.17.1,1.68.69.95.71,2.02.55,3.1-.19,1.3-1.01,2.19-2.17,2.73-.68.32-.93.76-.91,1.52.07,2.67-1.82,4.44-4.48,4.26-.64-.04-1.05.15-1.34.75-1.12,2.29-3.67,3.07-5.85,1.74-.72-.44-1.24-.5-2-.02-2.08,1.3-4.63.57-5.74-1.6-.4-.78-.88-1.09-1.8-.99-1.8.19-4.2-1.55-4.02-4.01ZM574.99,558.78c.8.04,1.43-.39,1.85-1.12,1.79-3.06,3.56-6.13,5.35-9.19.14-.25.33-.53.57-.65.24-.13.65-.2.85-.07.19.12.26.52.29.8.02.18-.12.38-.22.56-.63,1.09-1.27,2.17-1.9,3.25-1.16,2-2.32,4-3.48,6-.5.86-.61,1.75.01,2.59,1.06,1.43,2.87,1.37,4.05-.09,1.05-1.3,1.19-1.3,2.17.04.92,1.26,2.27,1.51,3.54.65.75-.51.93-1.26.97-2.11.06-1.23.49-1.42,1.6-.93.57.25,1.27.46,1.86.37,1.78-.3,2.55-2.16,1.64-3.74-.59-1.02-.23-1.65.94-1.67.07,0,.13,0,.2,0,1.98-.05,3.07-1.98,2.02-3.66-.28-.45-.79-.77-1.24-1.08-.62-.43-.68-1.02-.08-1.48.18-.13.38-.23.58-.34.88-.52,1.37-1.6,1.18-2.59-.17-.86-1.07-1.78-1.88-1.93-.97-.17-1.19.64-1.54,1.22-1.87,3.09-3.71,6.2-5.58,9.29-.18.3-.45.55-.71.79-.34.31-.6.14-.82-.19-.33-.52-.07-.97.18-1.38,2.25-3.75,4.5-7.5,6.78-11.24.82-1.33.55-2.86-.72-3.65-1.06-.66-2.77-.35-3.44,1.03-.43.89-.97,1.72-1.47,2.57-.38.64-.73,1.3-1.19,1.87-.18.22-.73.42-.9.31-.23-.16-.37-.62-.35-.94.02-.33.26-.66.44-.97.76-1.32,1.56-2.62,2.3-3.96.78-1.4.12-2.9-1.43-3.32-1.22-.33-2.31.2-3.01,1.45-.82,1.47-1.63,2.94-2.47,4.4-1.74,3.01-3.5,6.01-5.27,9.01-.51.87-1.06,1.72-1.65,2.53-.12.17-.53.26-.75.2-.18-.05-.35-.38-.4-.61-.04-.22.03-.5.14-.71.4-.75.82-1.49,1.25-2.23,2.37-4.07,4.74-8.14,7.1-12.22.23-.4.22-.79-.11-1.17-.87-1.02-2.73-1.03-3.59-.02-.47.56-.66,1.18-.65,1.92.01.98-.59,1.32-1.48.89-.1-.05-.2-.11-.3-.16-1.05-.56-2.02-.42-2.97.42-.7.62-.91,1.67-.53,2.65q.65,1.71-1.2,2c-1.74.27-2.65,1.94-1.83,3.49.25.48.74.89,1.21,1.2.72.48.81.99.13,1.54-.23.18-.49.32-.72.5-.76.57-1.21,1.66-.98,2.42.35,1.19,1.16,1.9,2.27,1.99,1.71.14,1.88.37,1.09,1.88-.9,1.72.49,3.62,2.28,3.57Z"/>
    <path class="cls-2" d="M587.16,555.89c-.54.78-1.02,1.55-1.59,2.24-.11.14-.62.1-.84-.04-.17-.11-.28-.55-.19-.74.31-.68.68-1.35,1.12-1.96.15-.2.61-.27.89-.22.2.04.34.39.6.72Z"/>
  </g>
  <g>
    <path class="cls-2" d="M563.73,637.03c-.03.2-.11.4-.1.6.1,1.37.22,2.75.32,4.12.02.29.05.58,0,.87-.05.39-.26.71-.69.73-.44.03-.68-.26-.74-.66-.15-.98-.32-1.97-.4-2.96-.1-1.22-.12-2.44-.21-3.66-.01-.15-.17-.35-.32-.41-2.26-.88-2.43-3.47-.97-4.62.45-.35.61-.81.56-1.38-.29-2.93-.57-5.86-.85-8.78-.06-.62-.12-1.25-.16-1.88-.03-.58.14-1.06.62-1.45,1.74-1.4,3.46-2.82,5.19-4.24.89-.73,1.75-1.48,2.64-2.21,1.53-1.25,3.08-2.47,4.61-3.72,1.82-1.5,3.62-3.03,5.43-4.53.93-.77,1.87-1.53,2.82-2.28.48-.38,1.03-.46,1.6-.24,1.34.51,2.69,1.03,4.04,1.53,1.52.56,3.05,1.1,4.58,1.65,2.3.84,4.6,1.69,6.9,2.53,1.35.49,2.7.97,4.05,1.48,1.11.42,2.22.86,3.33,1.28.64.24,1.3.44,1.94.7.85.34.97,1.11.25,1.71-.69.58-1.41,1.13-2.12,1.69-2.16,1.68-4.33,3.35-6.49,5.03-.22.17-.43.34-.64.52-.53.43-.66.98-.53,1.64.32,1.74.61,3.5.93,5.24.29,1.61-.23,2.94-1.33,4.11-1.46,1.56-3.28,2.54-5.24,3.31-3.51,1.38-7.15,1.89-10.9,1.69-2.04-.11-4.03-.44-5.82-1.49-1.02-.6-1.91-1.36-2.14-2.61-.38-2.02-.75-4.03-1.08-6.05-.1-.6-.37-.98-.93-1.18-2.04-.7-4.08-1.39-6.13-2.09-.91-.31-1.81-.66-2.73-.95-.88-.28-1.13-.03-1.04.9.21,2.18.42,4.36.62,6.54.06.63.08,1.25.12,1.88.03.64.37,1.06.91,1.39,1.18.72,1.61,2.02,1.1,3.31-.24.62-.7,1.07-1.25,1.43-.21.13-.36.27-.2.51.17.26.39.17.6.02.74-.55,1.1-.51,1.6.29.68,1.11,1.31,2.24,1.95,3.37.13.22.19.48.26.73.11.39-.04.82-.37.93-.37.12-.71.02-.92-.33-.56-.95-1.11-1.91-1.67-2.85-.25-.42-.54-.82-.82-1.22-.06.02-.12.03-.18.05ZM587.97,612.45c-2.98-.18-5.83.48-8.62,1.47-1.53.54-2.94,1.27-4.19,2.31-1.18.99-1.91,2.12-1.55,3.79.4,1.82.64,3.68.97,5.52.04.2.19.54.31.54.24,0,.54-.1.72-.26,1.65-1.51,3.62-2.44,5.7-3.17,2.22-.78,4.52-1.21,6.88-1.32,2.82-.13,5.61-.07,8.24,1.16.55.26.78.07.68-.55-.35-2.21-.69-4.42-1.12-6.61-.09-.45-.45-.91-.82-1.22-1.25-1.06-2.81-1.39-4.37-1.63-.93-.14-1.89-.03-2.84-.03ZM597.49,614.1c.22-.08.42-.11.56-.21.9-.69,1.78-1.39,2.67-2.09.24-.19.22-.41-.02-.56-.31-.19-.64-.36-.98-.49-1.69-.62-3.4-1.21-5.09-1.83-1.78-.65-3.55-1.32-5.33-1.97-1.84-.67-3.68-1.33-5.52-2.01-.53-.19-1.01-.19-1.46.19-1.11.92-2.22,1.83-3.34,2.74-1.08.88-2.18,1.73-3.25,2.62-1.13.93-2.25,1.89-3.38,2.82-1.34,1.1-2.69,2.17-4.02,3.27-.16.14-.37.43-.32.56.09.22.34.43.57.51.77.29,1.57.52,2.35.78.74.25,1,.17,1.21-.6.27-.98.87-1.72,1.56-2.39,1.48-1.43,3.29-2.34,5.19-3.03,1.64-.59,3.31-1.06,5.05-1.3,2.43-.34,4.84-.48,7.28-.11,2.29.34,4.42.99,5.96,2.87.08.1.21.15.31.22ZM582.84,603.03c.37.1.7.16,1.02.27.72.26,1.42.56,2.14.82,3.21,1.16,6.42,2.31,9.63,3.46.6.22,1.21.41,1.81.64.64.24,1.27.54,1.91.77,1.22.44,2.45.85,3.67,1.3.75.27.9,1.1.27,1.59-1.41,1.1-2.84,2.17-4.26,3.25-.32.24-.65.47-.93.75-.23.23-.44.58-.15.84.13.12.52-.03.78-.11.14-.04.24-.18.36-.28.52-.42,1.04-.85,1.58-1.26,1.34-1.04,2.69-2.06,4.03-3.1.31-.24.62-.5.91-.77.39-.35.33-.73-.15-.91-.61-.24-1.23-.47-1.85-.69-.62-.22-1.24-.42-1.86-.65-1.2-.45-2.39-.93-3.59-1.37-1.2-.44-2.42-.85-3.62-1.3-1.32-.48-2.63-.99-3.95-1.48-1.12-.42-2.24-.82-3.36-1.23-.53-.19-1.07-.37-1.6-.56-.79-.29-1.57-.61-2.36-.9-.58-.22-1.09-.1-1.58.31-1.37,1.15-2.75,2.28-4.13,3.42-1.9,1.56-3.8,3.13-5.7,4.69-1.16.95-2.31,1.91-3.47,2.86-1.61,1.31-3.23,2.61-4.83,3.93-.83.68-.78,1,.24,1.38,1.11.42,2.24.79,3.37,1.18,1.35.46,2.7.9,4.05,1.34.16.05.34.11.49.08.13-.03.31-.16.34-.28.04-.12-.02-.35-.12-.43-.18-.15-.41-.27-.64-.35-1.76-.63-3.51-1.26-5.28-1.87-.39-.13-.71-.29-.79-.73-.08-.43.14-.73.46-.99.75-.61,1.5-1.21,2.24-1.81,1.71-1.39,3.41-2.78,5.12-4.17,1.17-.95,2.36-1.89,3.53-2.85,1.82-1.49,3.63-3,5.46-4.48.21-.17.53-.21.78-.31ZM562.32,634.08c.53,0,.97-.46.97-1.01,0-.56-.44-1.02-.97-1.01-.55,0-.95.43-.97,1.01-.02.54.43,1.01.97,1.02Z"/>
    <path class="cls-2" d="M558.38,641.25s.01-.15.05-.26c.49-1.45.98-2.89,1.49-4.33.18-.52.6-.74,1.07-.62.56.14.78.63.56,1.17-.34.83-.66,1.66-.98,2.49-.24.64-.46,1.3-.71,1.94-.16.39-.49.54-.89.46-.4-.08-.6-.34-.59-.85Z"/>
  </g>
  <rect class="cls-8" x="547.43" y="166.23" width="72.18" height="66.11"/>
  <rect class="cls-5" x="547.43" y="232.34" width="72.18" height="67.42"/>
  <rect class="cls-6" x="547.43" y="310.16" width="72.18" height="66.11"/>
  <rect class="cls-6" x="547.43" y="376.27" width="72.18" height="67.42"/>
  <rect class="cls-7" x="547.43" y="455.03" width="72.18" height="66.11"/>
  <rect class="cls-7" x="547.43" y="521.14" width="72.18" height="67.42"/>
  <rect class="cls-7" x="547.43" y="588.07" width="72.18" height="67.42"/>
</svg>